<?xml version="1.0" standalone="no"?>
<!DOCTYPE svg PUBLIC "-//W3C//DTD SVG 20010904//EN"
 "http://www.w3.org/TR/2001/REC-SVG-20010904/DTD/svg10.dtd">
<svg version="1.0" xmlns="http://www.w3.org/2000/svg"
 width="999.000000pt" height="999.000000pt" viewBox="0 0 999.000000 999.000000"
 preserveAspectRatio="xMidYMid meet">

<g transform="translate(0.000000,999.000000) scale(0.100000,-0.100000)"
fill="#000000" stroke="none">
<path d="M1453 9974 c-16 -12 -26 -13 -42 -5 -59 32 -123 -14 -180 -131 -57
-117 -63 -234 -20 -375 78 -252 313 -513 526 -584 120 -40 292 -22 371 38 31
23 33 29 30 67 -5 48 14 71 43 53 14 -8 25 -5 53 17 20 15 36 33 36 41 0 7 15
19 34 25 19 6 55 27 80 46 26 19 50 33 55 29 32 -19 114 74 146 164 17 50 20
118 5 157 -6 15 -85 127 -176 250 -121 163 -172 224 -186 224 -15 0 -18 -3
-11 -12 95 -122 322 -432 335 -458 10 -19 18 -51 18 -72 0 -56 -37 -144 -80
-189 -32 -34 -42 -39 -58 -30 -10 6 -145 179 -298 385 -175 234 -286 375 -296
375 -10 1 -18 -1 -18 -4 0 -3 128 -176 285 -385 157 -209 285 -383 285 -386 0
-8 -32 -33 -41 -34 -4 0 -9 12 -13 28 -9 40 -26 57 -91 94 -59 33 -59 34 -70
95 -13 73 -25 89 -70 97 -39 8 -58 35 -70 101 -10 58 -22 74 -68 94 -54 23
-72 45 -87 101 -21 85 -30 99 -69 110 -20 5 -41 10 -48 10 -15 0 -33 32 -33
59 0 13 -6 21 -16 21 -14 0 -16 -8 -11 -42 7 -49 22 -63 76 -72 48 -7 56 -17
70 -85 14 -67 42 -106 85 -121 46 -15 64 -38 75 -94 11 -61 39 -98 82 -110 42
-12 47 -19 55 -83 7 -57 27 -83 86 -107 74 -31 102 -103 50 -130 l-29 -15
-314 421 c-173 232 -317 426 -320 431 -4 5 -14 7 -23 5 -12 -2 71 -120 314
-448 299 -402 329 -446 314 -457 -10 -7 -21 -13 -25 -13 -4 0 -162 207 -351
460 -188 252 -350 459 -358 459 -8 0 -25 -7 -37 -15z m369 -462 c291 -389 325
-438 310 -450 -9 -7 -20 -11 -24 -10 -6 3 -142 184 -577 766 -79 106 -83 114
-65 127 10 7 21 11 24 9 2 -3 151 -201 332 -442z m-427 430 c28 -20 715 -952
715 -969 0 -65 -220 -108 -354 -69 -53 16 -55 18 -50 45 5 24 2 30 -24 40 -17
7 -44 10 -65 6 -35 -7 -39 -4 -125 81 -49 49 -108 117 -131 152 -59 88 -117
212 -103 221 20 12 32 59 22 87 -8 21 -16 25 -35 22 -22 -5 -25 -1 -31 38 -9
61 10 158 46 231 48 98 99 141 135 115z m-135 -431 c0 -6 -4 -13 -10 -16 -5
-3 -10 1 -10 9 0 9 5 16 10 16 6 0 10 -4 10 -9z m407 -547 c-3 -3 -12 -4 -19
-1 -8 3 -5 6 6 6 11 1 17 -2 13 -5z"/>
<path d="M1375 9366 c-23 -35 -16 -80 13 -84 18 -3 26 4 37 33 26 61 -16 104
-50 51z m28 -31 c-3 -9 -8 -14 -10 -11 -3 3 -2 9 2 15 9 16 15 13 8 -4z"/>
<path d="M1489 9171 c-34 -27 -11 -53 44 -49 50 4 72 32 43 54 -27 19 -59 18
-87 -5z m58 -17 c-3 -3 -12 -4 -19 -1 -8 3 -5 6 6 6 11 1 17 -2 13 -5z"/>
<path d="M4550 9976 c0 -19 67 -107 107 -140 17 -14 47 -33 67 -41 69 -29 115
-20 441 89 260 87 303 104 265 105 -32 1 -124 -25 -315 -89 -288 -96 -329
-104 -393 -71 -42 21 -116 97 -134 136 -12 27 -38 34 -38 11z"/>
<path d="M7499 9963 c-6 -16 -12 -62 -13 -103 -1 -87 20 -153 62 -193 15 -14
205 -113 422 -219 367 -179 399 -192 450 -192 73 0 135 32 206 106 49 52 56
63 51 91 -3 21 3 47 19 79 13 26 24 56 24 67 0 11 11 32 24 46 36 38 51 82 36
100 -22 27 -3 54 43 57 34 2 44 8 59 34 10 17 21 59 24 92 6 51 4 62 -8 62
-11 0 -17 -15 -21 -52 -7 -72 -25 -108 -52 -108 -12 0 -97 36 -188 80 -107 52
-177 80 -199 80 -27 0 0 -17 141 -86 96 -46 177 -86 179 -88 2 -2 -2 -13 -9
-24 -12 -18 -22 -14 -238 90 -160 77 -234 108 -254 106 -24 -2 25 -30 236
-132 261 -126 265 -129 255 -152 -6 -13 -14 -24 -19 -24 -4 0 -150 70 -325
155 -229 112 -327 155 -347 153 -23 -2 45 -39 307 -167 201 -98 336 -170 336
-178 0 -17 -44 -63 -61 -63 -11 0 -53 42 -103 105 -27 33 -33 37 -65 32 -20
-3 -46 -9 -58 -13 -18 -5 -31 4 -70 46 -57 63 -94 81 -151 73 -41 -6 -44 -4
-97 53 l-54 59 -60 -2 c-57 -2 -61 -1 -78 27 -9 17 -26 30 -36 30 -20 0 -18
-6 21 -59 24 -33 26 -33 79 -27 l54 6 58 -60 58 -60 63 0 63 0 58 -61 c63 -66
52 -63 148 -43 27 6 32 2 66 -49 39 -59 91 -93 125 -82 17 5 17 3 7 -19 -7
-14 -16 -26 -21 -26 -5 0 -231 108 -502 240 -347 168 -504 240 -527 239 -37 0
-62 12 578 -298 231 -112 428 -211 438 -219 28 -24 20 -43 -42 -103 -44 -43
-72 -62 -115 -75 -53 -17 -58 -17 -108 0 -29 9 -222 101 -428 204 l-375 187
-25 50 c-20 41 -24 64 -24 127 1 54 7 85 18 103 16 24 16 25 -4 25 -13 0 -24
-10 -31 -27z"/>
<path d="M6490 9513 c-52 -47 -52 -47 -69 -26 -16 21 -21 17 -321 -248 -168
-148 -304 -274 -303 -279 3 -11 341 -562 351 -572 6 -5 748 285 760 297 2 2
-1 12 -7 23 -10 19 -5 22 51 44 80 30 87 43 62 104 -25 60 -39 63 -130 30 -79
-30 -69 -19 57 56 49 29 92 61 95 71 6 21 -38 94 -62 104 -8 3 -26 1 -39 -5
-19 -9 -22 -8 -19 6 5 21 -46 96 -68 100 -9 2 -35 -8 -57 -22 -48 -31 -51 -31
-51 -8 0 9 -9 32 -20 50 -11 18 -20 34 -20 37 0 2 27 20 60 41 39 24 60 43 60
56 0 32 -48 98 -71 98 -12 0 -55 -21 -96 -46 -40 -26 -76 -45 -78 -42 -3 2 11
20 30 38 19 19 35 41 35 50 0 18 -70 90 -87 90 -6 0 -34 -21 -63 -47z m95 -73
c-16 -16 -37 -30 -48 -30 -10 0 -27 -5 -38 -10 -16 -9 -21 -6 -31 16 -11 24
-9 28 37 69 l50 44 30 -29 29 -30 -29 -30z m-128 -65 l51 -84 -19 -51 c-62
-163 46 -340 219 -359 l56 -6 53 -87 c29 -49 52 -88 50 -88 -1 0 -51 -20 -112
-44 -83 -34 -113 -42 -121 -33 -21 22 -415 670 -412 678 4 9 171 158 178 158
3 1 28 -37 57 -84z m316 33 c15 -25 16 -33 5 -43 -10 -9 -193 -122 -260 -162
-5 -2 -8 3 -8 11 0 9 19 28 43 42 52 33 58 42 52 74 -5 22 3 30 62 67 38 24
73 43 78 43 6 0 18 -14 28 -32z m-213 -60 c14 -24 16 -35 8 -45 -15 -19 -21
-17 -46 23 -19 29 -21 38 -10 45 21 14 27 11 48 -23z m-160 -407 c112 -181
202 -333 201 -338 0 -4 -46 -27 -101 -49 -71 -30 -102 -38 -109 -30 -6 8 -342
554 -367 597 -4 8 153 149 166 149 4 0 99 -148 210 -329z m296 277 c16 -30 15
-32 -7 -49 -23 -17 -25 -17 -45 2 -27 25 -31 24 -84 -11 -50 -34 -63 -37 -58
-15 3 17 159 116 171 108 4 -2 14 -18 23 -35z m173 -63 l21 -36 -33 -20 c-17
-11 -41 -17 -52 -15 -12 4 -54 -16 -116 -54 -54 -33 -102 -60 -108 -60 -27 0
-6 28 42 55 28 17 57 41 64 55 10 19 133 107 155 109 3 1 15 -15 27 -34z
m-230 -29 c12 -18 21 -36 21 -39 0 -2 -27 -21 -61 -41 l-60 -36 -15 35 c-7 19
-14 38 -14 42 1 6 95 70 107 73 1 0 11 -15 22 -34z m-524 -212 c61 -98 143
-231 182 -296 l71 -116 -101 -41 c-55 -23 -103 -38 -106 -35 -3 3 -79 123
-168 267 l-162 262 77 72 c42 40 81 71 87 69 5 -1 59 -83 120 -182z m876 139
l20 -31 -106 -66 c-94 -59 -125 -71 -125 -48 0 4 16 16 36 27 43 23 59 48 45
73 -8 14 -1 23 42 49 29 18 56 31 60 30 4 -1 17 -16 28 -34z m-173 -35 l21
-32 -60 -38 c-67 -43 -79 -44 -132 -20 l-38 17 83 52 c46 28 88 52 95 52 6 1
20 -13 31 -31z m167 -174 c8 -20 15 -38 15 -39 0 -8 -121 -46 -129 -40 -6 3
-18 20 -26 36 -17 33 -24 27 75 64 49 19 48 19 65 -21z"/>
<path d="M9533 9202 c-7 -4 -24 -33 -38 -65 -28 -60 -33 -65 -53 -45 -8 8 -15
8 -21 3 -13 -14 -351 -717 -350 -729 0 -11 523 -389 546 -394 7 -2 94 76 193
174 183 180 204 209 162 230 -10 5 -159 110 -331 233 -274 197 -311 226 -305
245 4 11 27 62 53 113 l46 91 80 -57 80 -57 7 -68 c8 -82 42 -144 106 -193 69
-53 174 -69 247 -39 31 13 35 19 35 53 l0 38 -33 -38 c-30 -36 -35 -38 -80
-35 l-49 3 58 80 c31 44 58 82 61 85 2 2 13 -1 23 -8 19 -11 20 -9 20 24 0 33
-2 35 -17 23 -9 -8 -18 -13 -20 -11 -12 9 -29 -8 -85 -85 -35 -48 -66 -91 -70
-97 -5 -8 -11 -7 -19 1 -8 8 -1 25 31 67 24 31 40 63 38 73 -4 15 30 72 87
147 14 19 15 19 35 1 19 -18 20 -18 20 1 0 11 -5 25 -12 32 -22 22 -48 12 -79
-31 l-30 -43 -42 39 c-23 22 -41 43 -40 48 2 5 20 32 40 60 42 59 40 67 -25
113 -49 35 -52 33 -120 -63 -25 -37 -47 -68 -49 -70 -2 -2 -6 -2 -9 1 -3 3 4
24 15 46 12 23 18 47 16 55 -5 12 -86 57 -103 57 -4 0 -12 -4 -19 -8z m85 -58
c7 -5 -20 -74 -28 -74 -5 0 -19 -11 -32 -24 -23 -24 -23 -24 -46 -6 l-23 19
31 61 30 60 33 -16 c17 -9 34 -18 35 -20z m184 3 l27 -22 -97 -135 c-68 -95
-98 -130 -100 -116 -2 10 5 30 15 45 42 56 46 71 27 92 -16 18 -15 22 31 89
27 39 53 70 59 70 6 0 23 -10 38 -23z m-171 -138 c24 -17 27 -24 18 -35 -16
-19 -23 -18 -55 9 -16 14 -24 29 -20 35 10 17 24 15 57 -9z m166 -60 c32 -20
33 -23 19 -43 -11 -16 -22 -20 -50 -18 -33 3 -38 -1 -68 -47 -34 -52 -48 -62
-48 -35 0 14 99 163 109 164 2 0 19 -10 38 -21z m6 -123 c17 -13 16 -17 -19
-68 -21 -29 -39 -55 -40 -57 -5 -7 -64 41 -64 52 0 7 16 33 36 60 36 50 40 50
87 13z m-162 -253 c175 -126 317 -230 316 -233 -1 -3 -38 -40 -82 -82 l-80
-76 -292 210 -292 210 49 99 c28 54 53 99 57 99 3 0 149 -102 324 -227z m-146
-213 c149 -106 272 -194 274 -197 6 -5 -141 -153 -152 -153 -4 0 -122 82 -262
181 l-254 182 50 99 c36 72 53 97 62 90 7 -5 134 -96 282 -202z"/>
<path d="M4045 9083 c-53 -28 -97 -76 -131 -148 -36 -74 -41 -104 -22 -138 7
-12 11 -47 10 -77 -2 -30 1 -69 7 -87 5 -18 6 -33 2 -35 -5 -2 -11 -24 -15
-50 -6 -41 -4 -48 13 -58 33 -17 26 -48 -14 -64 -61 -26 -59 -105 6 -235 95
-190 293 -289 601 -298 180 -6 276 10 396 68 145 70 255 213 256 334 1 45 -2
51 -31 70 -36 23 -44 60 -14 68 22 5 35 80 18 108 -8 13 -8 24 1 44 7 14 12
48 12 76 0 35 6 58 21 78 19 26 20 34 11 77 -23 105 -78 191 -143 224 -37 19
-77 23 -432 40 -474 24 -513 24 -552 3z m547 -33 c414 -20 420 -21 473 -78 35
-36 52 -70 70 -137 15 -60 13 -80 -13 -90 -23 -9 -1152 44 -1180 56 -34 13
-37 33 -12 99 25 68 75 130 122 153 42 21 68 21 540 -3z m-42 -315 c278 -14
517 -25 533 -25 23 0 27 -4 27 -30 0 -28 -2 -30 -21 -19 -27 14 -102 7 -161
-17 -46 -18 -49 -18 -75 -1 -16 10 -43 25 -61 33 -31 14 -35 13 -76 -11 -47
-28 -53 -27 -133 13 l-51 26 -54 -22 c-68 -28 -87 -28 -148 3 -64 32 -97 31
-139 -5 -33 -28 -35 -29 -65 -13 -17 9 -41 24 -53 33 -35 27 -90 34 -119 15
-20 -13 -24 -13 -24 -1 0 37 12 46 64 46 28 0 278 -11 556 -25z m-490 -64 c14
-10 40 -25 58 -35 28 -15 35 -15 60 -2 16 8 34 22 41 30 19 22 44 20 101 -9
60 -31 106 -32 163 -4 l44 22 66 -33 c59 -29 69 -31 100 -21 20 7 41 19 47 27
17 19 21 18 71 -16 52 -35 81 -37 140 -10 46 21 105 26 128 11 13 -9 18 -67 7
-79 -3 -3 -245 7 -538 22 -293 14 -547 26 -565 26 -23 0 -33 5 -38 20 -6 20 9
59 29 73 15 10 56 0 86 -22z m485 -127 c297 -14 545 -27 551 -29 7 -2 9 -15 6
-31 l-5 -27 -86 6 c-47 4 -309 16 -581 28 -272 12 -498 25 -502 28 -4 4 -5 16
-2 29 8 28 -38 28 619 -4z m-75 -84 c234 -11 462 -22 508 -26 79 -6 82 -7 82
-31 l0 -24 -92 6 c-130 8 -917 45 -967 45 -37 0 -41 2 -41 25 0 31 -36 31 510
5z m95 -86 c347 -16 545 -30 554 -37 32 -27 -19 -165 -91 -243 -23 -26 -62
-60 -86 -75 -43 -27 -44 -27 -63 -8 -18 18 -22 18 -49 4 -16 -8 -35 -27 -42
-42 -20 -41 -96 -55 -283 -49 -180 5 -288 28 -293 63 -4 28 -50 73 -74 73 -11
0 -22 -9 -25 -20 -3 -11 -8 -20 -10 -20 -17 0 -108 79 -139 121 -38 52 -83
166 -84 210 0 59 -34 58 685 23z m280 -394 c-3 -5 -11 -10 -16 -10 -6 0 -7 5
-4 10 3 6 11 10 16 10 6 0 7 -4 4 -10z"/>
<path d="M4350 8055 c-28 -34 42 -117 72 -87 14 14 2 58 -22 82 -24 24 -34 25
-50 5z m44 -41 c5 -14 4 -15 -9 -4 -17 14 -19 20 -6 20 5 0 12 -7 15 -16z"/>
<path d="M4595 8035 c-49 -48 -19 -111 30 -65 31 29 40 57 25 75 -17 21 -27
19 -55 -10z m17 -37 c-7 -7 -12 -8 -12 -2 0 14 12 26 19 19 2 -3 -1 -11 -7
-17z"/>
<path d="M0 8967 c0 -7 6 -19 12 -25 10 -10 10 -17 0 -32 -17 -28 -15 -95 3
-110 14 -12 14 -15 0 -36 -8 -13 -15 -41 -15 -63 0 -38 3 -42 86 -102 l86 -62
-87 -87 c-54 -54 -86 -94 -83 -104 2 -12 33 14 107 88 101 101 104 106 88 124
-17 18 -16 21 27 56 61 50 65 67 24 116 -32 38 -69 52 -82 31 -4 -5 -30 -29
-59 -53 l-52 -43 26 35 c86 117 119 170 119 188 0 20 -28 45 -77 71 -19 10
-26 8 -43 -9 l-21 -21 -20 25 c-22 28 -39 34 -39 13z m141 -54 c16 -10 29 -21
29 -26 0 -4 -32 -53 -71 -108 -46 -64 -75 -97 -81 -91 -7 7 -1 24 16 48 30 45
32 57 10 78 -14 15 -12 21 21 66 20 28 39 50 42 50 3 0 18 -8 34 -17z m82
-201 l27 -28 -49 -48 -49 -48 -31 23 c-17 12 -31 25 -31 28 0 7 93 101 100
101 4 0 18 -13 33 -28z"/>
<path d="M2812 8388 c-8 -8 -12 -46 -12 -105 0 -55 -4 -93 -10 -93 -5 0 -10
11 -10 24 0 14 -4 36 -10 50 -11 29 -38 33 -104 15 l-39 -11 7 -64 c4 -35 9
-71 12 -79 5 -11 -1 -15 -20 -15 -14 0 -26 -3 -26 -7 -1 -5 30 -187 67 -406
l68 -397 344 2 345 3 68 395 c37 217 68 398 68 403 0 4 -8 7 -18 7 -29 0 -30
6 -17 72 7 34 11 67 8 74 -5 14 -63 34 -99 34 -31 0 -40 -16 -57 -95 l-15 -70
-1 126 c-1 83 -5 129 -13 137 -7 7 -35 12 -63 12 -57 0 -75 -12 -75 -49 0 -19
-3 -22 -12 -13 -18 18 -103 15 -122 -4 -10 -10 -16 -33 -16 -62 l0 -47 -57 5
-57 5 -2 74 c-2 48 -7 77 -16 82 -20 13 -102 11 -116 -3z m98 -184 c0 -107 -3
-163 -10 -159 -5 3 -10 29 -10 57 0 52 -19 88 -47 88 -10 0 -13 21 -13 90 l0
90 40 0 40 0 0 -166z m420 36 c0 -109 -2 -130 -15 -130 -11 0 -15 12 -15 44 0
60 -8 76 -36 76 -23 0 -24 3 -24 70 l0 70 45 0 45 0 0 -130z m-150 36 c0 -26
-6 -48 -15 -56 -12 -10 -15 -38 -15 -131 0 -99 -3 -119 -15 -119 -12 0 -15 15
-15 74 0 53 -4 77 -15 86 -11 9 -15 34 -15 95 0 45 3 85 7 88 3 4 24 7 45 7
l38 0 0 -44z m-435 -36 c4 -11 3 -45 0 -75 -7 -52 -9 -55 -35 -55 -26 0 -29 4
-39 50 -15 70 -14 88 7 93 40 11 61 7 67 -13z m738 11 c24 -9 25 -12 16 -53
-20 -94 -16 -88 -60 -88 l-42 0 7 53 c14 103 20 110 79 88z m-453 -81 c0 -19
-5 -30 -14 -30 -31 0 -46 -30 -46 -93 0 -37 -4 -57 -9 -51 -11 11 -14 37 -12
132 l1 72 40 0 c38 0 40 -2 40 -30z m240 -44 c0 -74 0 -75 -37 -105 -21 -17
-41 -31 -45 -31 -5 0 -8 47 -8 105 l0 105 45 0 45 0 0 -74z m-415 9 c0 -16 -8
-21 -42 -23 -37 -3 -43 0 -43 16 0 27 10 33 50 30 27 -2 35 -7 35 -23z m235
-100 l0 -74 -32 5 c-58 10 -58 10 -58 72 0 32 3 62 7 65 3 4 24 7 45 7 l38 0
0 -75z m-237 23 c66 -102 190 -145 313 -110 45 13 129 81 139 112 6 18 16 20
111 20 76 0 104 -3 104 -12 0 -7 -7 -61 -17 -120 l-17 -108 -406 0 -407 0 -17
103 c-10 56 -20 110 -22 120 -5 15 4 17 99 17 98 0 106 -2 120 -22z m619 -253
c4 -5 -4 -61 -27 -192 l-6 -33 -359 0 -360 0 -5 23 c-8 38 -35 189 -35 198 0
9 783 13 792 4z m-42 -265 c0 -6 -7 -56 -17 -110 l-16 -100 -317 0 -317 0 -17
89 c-27 148 -71 131 334 131 237 0 350 -3 350 -10z"/>
<path d="M7727 8250 c-312 -49 -495 -185 -552 -409 -9 -34 -13 -71 -9 -84 9
-31 34 -57 54 -57 26 0 33 -48 9 -61 -23 -12 -26 -76 -5 -104 10 -14 11 -26 4
-45 -5 -14 -7 -50 -4 -80 5 -40 2 -64 -9 -87 -13 -26 -13 -35 -1 -70 41 -118
106 -191 186 -213 56 -15 899 44 943 66 71 36 117 100 143 199 18 67 17 92 -4
113 -13 13 -19 36 -21 78 -1 32 -6 63 -11 68 -5 5 -6 40 -3 78 6 65 5 69 -16
75 -15 4 -21 13 -21 34 0 18 5 29 13 29 25 0 47 36 47 77 0 58 -61 173 -126
238 -62 63 -165 115 -270 139 -89 19 -271 28 -347 16z m307 -38 c29 -5 40 -12
42 -27 4 -26 51 -67 72 -63 9 2 21 13 27 25 l11 22 50 -28 c27 -16 71 -52 97
-80 79 -85 132 -224 95 -248 -7 -4 -280 -26 -607 -48 -456 -31 -597 -38 -609
-29 -22 16 -19 76 9 149 28 77 67 133 126 183 45 39 48 40 61 21 7 -10 17 -19
22 -19 18 0 69 51 72 72 2 18 16 26 63 41 140 43 322 54 469 29z m101 -42 c3
-5 2 -10 -4 -10 -5 0 -13 5 -16 10 -3 6 -2 10 4 10 5 0 13 -4 16 -10z m-665
-34 c0 -2 -8 -10 -17 -17 -16 -13 -17 -12 -4 4 13 16 21 21 21 13z m910 -391
c0 -17 -5 -25 -17 -25 -10 0 -253 -16 -541 -36 -288 -20 -530 -33 -538 -30 -8
3 -14 15 -14 26 0 17 7 20 43 21 23 0 249 15 502 33 253 19 484 34 513 35 49
1 52 0 52 -24z m40 -83 l0 -27 -517 -34 c-285 -18 -551 -36 -591 -39 l-74 -5
4 29 3 29 520 36 c286 20 550 37 588 38 67 1 67 1 67 -27z m-10 -95 c0 -63
-43 -73 -132 -32 -29 14 -61 25 -70 25 -10 0 -36 -17 -59 -37 l-41 -37 -61 22
c-81 29 -99 28 -163 -9 l-53 -30 -47 20 c-63 28 -105 27 -142 -4 -36 -30 -57
-31 -100 -5 -45 27 -78 25 -137 -10 -81 -48 -155 -33 -140 29 4 14 8 27 9 29
4 4 990 69 1069 71 l67 1 0 -33z m-140 -62 c57 -29 121 -33 145 -9 15 16 16
14 13 -17 l-3 -34 -535 -37 c-663 -45 -626 -45 -632 -14 -5 24 -3 24 46 19 44
-4 59 0 108 26 68 36 77 37 120 11 44 -27 84 -25 120 5 36 31 58 31 126 3 l53
-22 65 34 64 35 64 -23 c86 -29 101 -28 143 13 20 19 40 35 45 35 5 0 31 -11
58 -25z m190 -110 c23 -27 -13 -142 -65 -211 -46 -60 -57 -62 -530 -94 -432
-30 -437 -30 -478 -11 -66 29 -121 101 -147 190 -13 46 14 71 78 72 26 0 254
15 507 33 544 40 618 42 635 21z"/>
<path d="M7867 8183 c-26 -25 18 -97 56 -91 31 4 33 39 3 71 -24 26 -46 34
-59 20z m44 -50 c13 -16 12 -17 -3 -4 -10 7 -18 15 -18 17 0 8 8 3 21 -13z"/>
<path d="M7663 8158 c-38 -43 -39 -88 -3 -88 42 0 80 90 44 104 -21 8 -18 9
-41 -16z m20 -33 c-3 -9 -8 -14 -10 -11 -3 3 -2 9 2 15 9 16 15 13 8 -4z"/>
<path d="M1105 8140 c-67 -14 -123 -37 -180 -76 -113 -74 -155 -154 -108 -206
21 -24 8 -58 -22 -58 -19 0 -30 -10 -45 -40 -11 -23 -18 -45 -15 -51 4 -5 -6
-24 -22 -42 -15 -18 -36 -50 -46 -72 -10 -23 -28 -45 -40 -50 -31 -14 -47 -54
-54 -133 -8 -99 15 -170 70 -217 24 -21 207 -120 425 -231 338 -171 388 -194
430 -194 112 0 277 130 258 204 -3 13 5 39 19 65 14 24 25 54 25 67 0 13 13
37 30 54 34 35 48 76 33 100 -17 26 3 50 42 50 46 0 70 26 84 89 25 117 6 243
-52 340 -146 248 -574 454 -832 401z m74 -32 c-3 -27 2 -36 22 -41 26 -7 70 8
86 30 11 14 21 13 101 -10 120 -35 190 -67 286 -132 120 -81 134 -95 128 -133
-2 -20 2 -42 12 -57 17 -26 51 -33 59 -12 8 18 43 -29 69 -93 18 -45 23 -75
23 -160 0 -116 -15 -160 -57 -160 -25 0 -1058 525 -1074 546 -19 24 -6 49 55
107 67 64 121 94 205 112 79 17 87 18 85 3z m71 -2 c0 -2 -7 -6 -15 -10 -8 -3
-15 -1 -15 4 0 6 7 10 15 10 8 0 15 -2 15 -4z m303 -630 c274 -140 313 -167
273 -182 -8 -3 -176 76 -373 176 -339 173 -604 310 -611 316 -2 1 1 12 8 23
11 21 17 18 213 -83 111 -57 331 -170 490 -250z m291 319 c3 -8 1 -15 -4 -15
-6 0 -10 7 -10 15 0 8 2 15 4 15 2 0 6 -7 10 -15z m-518 -293 c279 -143 510
-264 511 -269 2 -5 -3 -17 -10 -27 -13 -18 -26 -13 -238 96 -123 64 -358 184
-521 268 -164 83 -298 154 -298 157 0 16 24 44 34 40 7 -3 242 -122 522 -265z
m-185 -4 c574 -294 634 -326 637 -343 5 -23 -26 -55 -53 -55 -25 0 -59 29 -79
68 -8 15 -25 38 -39 51 -25 22 -28 23 -78 11 l-53 -13 -50 57 c-54 60 -96 80
-147 69 -35 -7 -70 14 -95 55 -26 45 -68 65 -119 59 -47 -7 -59 2 -88 59 -19
38 -59 54 -132 54 -55 0 -105 27 -105 56 0 23 19 54 34 54 7 0 172 -82 367
-182z m-421 92 c0 -22 57 -45 129 -51 62 -5 78 -10 90 -28 9 -12 29 -38 45
-57 27 -33 30 -34 78 -28 48 7 49 6 88 -36 22 -24 40 -47 40 -50 0 -15 61 -32
91 -26 44 8 90 -17 128 -69 42 -58 67 -65 153 -39 13 4 27 -10 53 -50 42 -65
68 -86 112 -86 31 0 32 -1 21 -25 -14 -32 -19 -31 -82 4 -28 15 -261 135 -518
265 -465 236 -467 237 -456 261 11 25 28 34 28 15z m476 -336 c363 -184 525
-271 529 -285 18 -55 -135 -168 -228 -169 -30 0 -121 42 -425 196 -213 108
-400 208 -415 223 -38 35 -61 118 -54 191 9 80 22 110 48 110 12 0 257 -120
545 -266z"/>
<path d="M1397 8006 c-31 -29 -33 -39 -11 -57 24 -20 89 17 89 51 0 36 -42 39
-78 6z m43 -16 c0 -5 -8 -10 -17 -10 -15 0 -16 2 -3 10 19 12 20 12 20 0z"/>
<path d="M1599 7916 c-17 -36 1 -81 32 -81 21 0 24 5 27 38 5 62 -37 92 -59
43z m35 -31 c3 -8 1 -15 -4 -15 -6 0 -10 7 -10 15 0 8 2 15 4 15 2 0 6 -7 10
-15z"/>
<path d="M5699 7295 c-23 -30 -44 -55 -47 -55 -3 0 -13 6 -21 14 -14 13 -42
-22 -251 -314 -129 -181 -236 -333 -237 -337 -2 -5 106 -117 239 -249 l243
-242 320 225 c176 123 327 228 335 233 13 7 12 11 -3 27 -16 19 -15 21 40 59
32 21 59 47 61 56 2 9 -9 35 -24 57 -31 48 -54 52 -104 18 -88 -60 -89 -54 -2
34 50 52 92 101 92 110 0 8 -18 33 -40 54 l-41 40 -29 -17 c-23 -13 -30 -14
-30 -4 0 14 -74 86 -88 86 -4 0 -25 -18 -47 -40 -37 -36 -64 -53 -50 -30 3 5
-10 27 -29 48 l-35 39 49 48 c28 27 50 57 50 67 0 26 -59 88 -83 88 -13 0 -48
-27 -89 -67 -68 -68 -85 -74 -48 -18 11 17 20 39 20 50 0 21 -67 75 -94 75 -8
0 -34 -25 -57 -55z m95 1 l30 -23 -23 -36 c-12 -21 -30 -37 -39 -37 -8 0 -23
-7 -32 -15 -15 -14 -19 -13 -35 5 -18 20 -17 21 20 75 20 30 40 55 44 55 3 0
19 -11 35 -24z m201 -46 l28 -30 -34 -31 c-19 -18 -73 -70 -121 -118 -58 -56
-88 -80 -88 -68 0 10 19 38 42 63 38 42 40 46 28 70 -13 23 -11 28 45 84 33
33 62 60 65 60 4 0 19 -13 35 -30z m-236 -204 c-23 -80 7 -178 73 -243 67 -64
101 -78 196 -78 l82 -1 69 -68 70 -69 -97 -69 c-53 -37 -101 -67 -107 -66 -5
2 -136 130 -289 285 l-279 282 18 28 c10 15 43 61 73 102 l54 73 73 -72 c69
-69 72 -74 64 -104z m45 96 c24 -26 25 -30 11 -42 -13 -11 -20 -9 -45 15 -23
22 -27 32 -19 42 16 18 22 17 53 -15z m153 -84 c28 -26 29 -40 3 -63 -16 -14
-23 -16 -32 -7 -21 21 -43 13 -83 -28 -40 -41 -55 -49 -55 -28 0 11 129 148
139 148 3 0 15 -10 28 -22z m188 -88 c-16 -16 -38 -30 -49 -30 -12 0 -54 -33
-103 -82 -65 -65 -85 -80 -95 -70 -9 9 -1 23 40 63 29 28 52 58 52 67 0 9 28
45 62 79 l63 63 29 -30 30 -30 -29 -30z m-403 -262 l275 -283 -89 -62 c-49
-35 -93 -63 -97 -63 -5 0 -120 115 -256 255 -166 171 -244 258 -239 267 22 38
119 168 125 168 3 0 130 -127 281 -282z m483 132 c-49 -49 -93 -90 -97 -90
-18 0 -6 28 22 55 30 29 39 68 19 81 -7 4 8 25 37 55 l48 49 31 -30 30 -30
-90 -90z m-292 102 l27 -28 -50 -49 c-42 -42 -51 -46 -65 -35 -40 33 -39 50 6
96 24 24 46 44 49 44 4 0 18 -13 33 -28z m197 -59 l21 -27 -53 -53 c-54 -54
-77 -62 -136 -46 -22 5 -19 10 49 79 41 41 79 74 86 74 6 0 21 -12 33 -27z
m-580 -348 c135 -135 246 -249 248 -254 1 -5 -37 -36 -86 -69 l-89 -61 -222
224 c-153 153 -221 228 -215 237 9 15 117 168 119 168 0 0 111 -110 245 -245z
m779 216 c12 -16 21 -31 21 -34 0 -2 -25 -21 -56 -42 l-57 -37 -30 31 c-17 17
-29 32 -26 34 16 14 115 77 121 77 4 0 16 -13 27 -29z"/>
<path d="M9505 6862 c-202 -72 -406 -257 -510 -464 -53 -106 -69 -177 -63
-283 9 -140 80 -275 147 -275 15 0 32 5 39 12 17 17 45 -10 38 -37 -4 -16 3
-30 27 -52 17 -16 40 -33 50 -36 9 -4 20 -15 24 -24 3 -10 24 -37 46 -60 23
-24 46 -57 51 -75 14 -41 61 -73 148 -99 70 -22 137 -20 183 3 11 6 84 74 163
151 103 102 142 148 142 165 0 19 -30 -7 -152 -132 -131 -132 -159 -156 -197
-166 -95 -25 -261 39 -261 101 0 7 137 150 305 319 225 226 305 312 305 329 0
18 -70 -47 -314 -295 l-314 -319 -21 19 -21 19 35 21 c43 26 57 47 79 114 19
56 30 66 88 76 43 8 78 46 78 86 0 33 23 55 80 75 58 21 78 40 91 89 14 54 42
82 99 101 62 20 81 43 88 102 2 26 11 52 18 56 15 8 19 37 6 37 -4 0 -18 -7
-30 -16 -17 -12 -22 -25 -22 -58 0 -53 -14 -72 -68 -91 -73 -25 -100 -50 -118
-111 -15 -54 -47 -84 -88 -84 -28 0 -86 -60 -86 -89 0 -40 -20 -61 -70 -72
-59 -13 -76 -31 -97 -96 -17 -54 -59 -103 -88 -103 -7 0 -23 12 -35 27 l-21
27 366 366 c291 291 366 371 363 389 -2 18 -73 -50 -382 -364 -365 -372 -379
-385 -397 -369 -11 10 -18 21 -17 25 2 4 181 188 398 409 241 246 396 411 398
424 2 13 -4 28 -12 35 -12 10 -14 24 -9 57 8 57 -12 79 -110 125 -64 29 -83
34 -172 37 -89 2 -109 0 -180 -26z m307 -26 c85 -30 128 -60 128 -90 0 -29
-832 -876 -860 -876 -68 0 -137 212 -116 354 7 42 9 46 31 40 17 -4 26 0 34
14 14 26 14 75 0 89 -36 36 169 280 320 383 53 36 67 41 82 31 50 -30 126 -1
101 40 -10 16 -9 19 16 25 15 3 32 7 37 9 39 13 166 2 227 -19z m-315 -32 c-3
-3 -12 -4 -19 -1 -8 3 -5 6 6 6 11 1 17 -2 13 -5z m461 -170 c-2 -7 -175 -186
-386 -399 -315 -317 -386 -384 -398 -374 -8 6 -14 16 -14 21 0 6 174 185 387
399 310 312 389 386 400 377 8 -6 13 -17 11 -24z m-951 -326 c-3 -7 -5 -2 -5
12 0 14 2 19 5 13 2 -7 2 -19 0 -25z"/>
<path d="M9292 6662 c-40 -27 28 -84 74 -63 43 19 25 56 -32 66 -16 3 -35 2
-42 -3z m53 -32 c3 -5 2 -10 -4 -10 -5 0 -13 5 -16 10 -3 6 -2 10 4 10 5 0 13
-4 16 -10z"/>
<path d="M9152 6518 c-34 -34 7 -128 43 -98 19 16 19 59 -1 88 -17 25 -25 27
-42 10z m25 -60 c-3 -7 -5 -2 -5 12 0 14 2 19 5 13 2 -7 2 -19 0 -25z"/>
<path d="M7 6663 c-4 -3 -7 -15 -7 -26 0 -15 3 -17 13 -8 11 8 18 6 32 -9 18
-20 18 -21 -13 -53 -18 -19 -32 -44 -32 -57 0 -23 2 -22 41 15 l40 40 20 -24
c29 -36 24 -68 -13 -91 -18 -11 -43 -20 -56 -20 -21 0 -41 -24 -30 -35 3 -3
26 1 53 9 53 17 95 50 95 78 0 23 12 23 33 0 15 -17 11 -24 -83 -117 -75 -74
-100 -106 -100 -125 1 -22 15 -11 105 82 57 59 112 111 123 117 29 15 55 -8
86 -80 31 -68 38 -156 17 -199 -7 -14 -85 -97 -173 -186 -128 -129 -159 -166
-156 -184 3 -20 28 2 173 154 94 97 176 191 184 209 20 47 16 133 -10 202 -24
65 -75 125 -106 125 -11 0 -35 16 -54 36 -18 20 -44 40 -57 45 -12 5 -25 17
-29 26 -8 24 -64 83 -78 83 -7 0 -15 -3 -18 -7z"/>
<path d="M3560 6649 c-41 -10 -124 -44 -185 -73 -306 -151 -474 -392 -437
-628 18 -116 59 -167 120 -151 25 6 40 -31 22 -52 -9 -11 -7 -22 10 -50 12
-19 30 -40 41 -45 11 -6 19 -21 19 -35 0 -13 14 -47 30 -75 17 -29 30 -65 30
-84 0 -28 9 -42 55 -84 34 -31 78 -59 113 -72 104 -40 107 -38 541 213 367
213 388 226 416 272 28 45 30 55 29 139 -1 104 -19 160 -58 177 -13 6 -36 32
-50 58 -14 25 -37 57 -51 70 -14 12 -22 27 -19 32 3 5 -5 27 -17 49 -16 28
-29 40 -45 40 -36 0 -46 29 -22 61 36 49 -1 113 -105 183 -117 77 -276 97
-437 55z m359 -47 c106 -53 180 -127 165 -165 -4 -12 -910 -543 -1032 -606
-58 -30 -106 111 -82 247 11 66 46 162 59 162 4 0 13 -6 20 -12 10 -11 17 -7
38 16 19 23 24 37 20 62 -5 29 0 38 52 87 98 94 211 160 364 213 l67 23 25
-25 c39 -39 104 -28 92 16 -6 23 -5 23 73 17 60 -4 93 -12 139 -35z m-254 18
c3 -5 2 -10 -4 -10 -5 0 -13 5 -16 10 -3 6 -2 10 4 10 5 0 13 -4 16 -10z m403
-270 c14 -22 72 14 -557 -350 -356 -206 -386 -221 -398 -204 -7 10 -9 22 -5
26 9 9 934 546 942 547 3 1 11 -8 18 -19z m82 -74 c0 -6 -33 -29 -73 -52 -39
-22 -267 -152 -504 -288 -363 -209 -435 -247 -448 -236 -8 7 -15 18 -15 24 0
6 229 143 508 304 457 263 508 291 520 275 6 -9 12 -22 12 -27z m-1079 -3
c-12 -20 -14 -14 -5 12 4 9 9 14 11 11 3 -2 0 -13 -6 -23z m1097 -56 c6 -6 13
-24 17 -39 10 -37 -23 -55 -112 -61 -40 -2 -79 -9 -86 -16 -8 -6 -19 -29 -26
-51 -13 -45 -34 -60 -86 -60 -58 0 -101 -24 -140 -79 -35 -49 -39 -51 -83 -51
-64 0 -113 -26 -134 -72 -19 -41 -50 -55 -94 -44 -41 11 -62 -2 -103 -63 -40
-58 -86 -89 -116 -77 -20 7 -41 54 -29 65 12 12 967 561 975 561 4 0 11 -6 17
-13z m70 -88 c7 -12 12 -22 10 -24 -10 -9 -1012 -585 -1018 -585 -4 0 -12 11
-18 25 -10 23 -9 25 11 25 37 1 70 25 118 86 42 53 49 59 79 56 18 -2 48 -1
67 3 28 5 37 13 53 49 21 49 53 66 126 66 38 0 47 5 71 36 66 86 65 85 133 94
90 11 98 16 117 70 19 54 29 60 110 60 60 0 100 15 108 42 8 24 17 23 33 -3z
m65 -64 c17 -16 37 -98 37 -148 0 -54 -20 -107 -53 -142 -18 -19 -193 -127
-402 -247 -362 -208 -371 -213 -425 -212 -63 0 -112 22 -177 79 -46 39 -55 72
-27 96 28 23 1008 588 1021 589 6 0 18 -7 26 -15z"/>
<path d="M3425 6526 c-23 -17 -7 -49 34 -66 37 -15 61 -8 61 18 0 37 -66 69
-95 48z m55 -36 c0 -5 -2 -10 -4 -10 -3 0 -8 5 -11 10 -3 6 -1 10 4 10 6 0 11
-4 11 -10z"/>
<path d="M3252 6428 c-18 -18 -15 -83 4 -99 14 -11 19 -10 35 10 40 49 4 132
-39 89z m25 -60 c-3 -7 -5 -2 -5 12 0 14 2 19 5 13 2 -7 2 -19 0 -25z"/>
<path d="M7865 6098 c-47 -17 -57 -29 -51 -60 4 -18 2 -27 -4 -23 -15 9 -111
-25 -117 -42 -5 -12 6 -62 23 -107 3 -7 -11 -12 -38 -13 -24 -1 -52 -3 -62 -5
-15 -2 -23 10 -41 62 l-22 65 -39 -1 c-59 -2 -94 -19 -94 -47 0 -13 11 -57 25
-97 32 -95 31 -106 -5 -47 -17 26 -34 47 -40 47 -23 0 -100 -45 -106 -62 -3
-11 7 -41 26 -73 31 -54 32 -75 4 -75 -8 0 -14 -4 -14 -9 0 -5 85 -171 189
-368 122 -231 194 -357 203 -355 7 2 154 50 326 105 230 75 312 106 311 117 0
8 -26 191 -57 405 l-57 390 -25 0 c-23 0 -25 5 -32 60 -4 33 -10 66 -13 73 -5
15 -73 16 -111 2 l-27 -11 6 -87 6 -87 -42 125 c-38 114 -44 125 -67 127 -14
1 -38 -3 -55 -9z m97 -137 c20 -63 35 -118 32 -122 -11 -19 -22 -7 -34 36 -13
47 -32 65 -64 62 -14 -2 -22 12 -36 58 -11 32 -18 60 -17 61 9 6 64 22 71 20
5 -1 27 -53 48 -115z m172 32 c3 -16 6 -46 8 -67 3 -37 1 -40 -36 -53 -22 -7
-41 -12 -42 -10 -2 1 -6 33 -10 71 -8 75 -2 86 48 86 21 0 28 -6 32 -27z
m-325 -35 c6 -17 8 -46 5 -64 -4 -23 4 -61 26 -129 18 -53 29 -103 26 -112 -9
-23 -21 -7 -41 57 -9 30 -26 63 -36 72 -18 15 -69 144 -69 173 0 10 41 29 72
34 3 1 11 -13 17 -31z m-228 -163 c26 -82 46 -152 43 -154 -9 -9 -29 21 -45
67 -14 41 -19 47 -47 50 -29 3 -32 8 -57 83 -15 44 -25 82 -23 84 9 9 54 24
67 22 9 -1 32 -59 62 -152z m359 39 c18 -55 20 -70 10 -94 -14 -33 -46 -65
-53 -53 -6 10 -57 178 -57 187 0 4 10 11 23 16 46 19 54 13 77 -56z m264 4
c13 -75 29 -209 25 -212 -6 -5 -748 -246 -759 -246 -8 0 -124 210 -118 215 2
1 45 16 96 33 l92 31 50 -34 c79 -53 184 -59 269 -16 54 28 119 105 132 157
l11 43 92 30 c50 16 94 29 97 30 4 1 9 -14 13 -31z m-504 -34 c9 -21 6 -29
-12 -44 -23 -18 -23 -18 -6 -82 16 -64 16 -80 -2 -62 -10 10 -72 185 -67 190
6 6 53 23 65 23 7 1 17 -11 22 -25z m-290 -26 c7 -13 17 -45 20 -71 6 -45 5
-49 -18 -58 -14 -5 -26 -8 -27 -7 -1 2 -17 28 -34 59 l-32 57 33 20 c42 26 41
26 58 0z m388 -85 c12 -37 20 -68 19 -70 -2 -1 -21 -5 -43 -8 l-40 -7 -17 54
c-9 30 -17 59 -17 65 0 8 43 28 71 32 4 1 16 -29 27 -66z m-250 15 c3 -18 -59
-45 -78 -33 -19 12 -10 33 18 43 36 14 56 10 60 -10z m692 -123 c0 -2 7 -52
16 -111 8 -58 14 -107 12 -108 -9 -6 -667 -216 -676 -216 -7 0 -34 45 -62 99
l-50 100 308 100 c169 55 334 109 367 120 61 20 85 25 85 16z m52 -357 c8 -57
13 -106 9 -110 -3 -3 -134 -47 -290 -98 -157 -51 -290 -94 -296 -96 -6 -3 -35
40 -63 94 l-52 99 238 77 c130 43 275 90 322 106 47 16 92 29 101 29 12 1 19
-21 31 -101z"/>
<path d="M1626 5734 c-75 -27 -80 -42 -41 -130 14 -32 24 -59 22 -60 -2 -2
-34 41 -71 96 -76 112 -86 117 -149 75 -38 -27 -48 -60 -25 -83 9 -9 8 -12 -5
-12 -22 0 -97 -49 -98 -64 -3 -24 4 -42 27 -73 28 -37 29 -43 8 -43 -8 0 -31
-11 -52 -25 l-36 -25 -39 60 c-27 41 -46 60 -60 60 -33 0 -97 -49 -97 -75 0
-12 23 -54 50 -94 28 -40 50 -75 50 -78 0 -3 -18 11 -40 31 -22 20 -45 36 -50
36 -18 0 -90 -72 -90 -89 0 -9 23 -39 50 -66 l50 -50 -22 -16 c-22 -17 -22
-18 197 -244 121 -125 249 -259 285 -297 l65 -70 275 187 c151 103 279 191
284 196 7 6 -288 681 -323 738 -6 10 -13 10 -28 2 -18 -9 -23 -4 -47 54 -15
35 -33 65 -39 68 -7 2 -30 -2 -51 -9z m-106 -126 c47 -68 67 -105 60 -112 -5
-5 -11 -8 -13 -5 -54 77 -60 81 -91 76 -29 -5 -34 -1 -64 44 -17 27 -32 52
-32 57 0 8 50 41 62 42 4 0 39 -46 78 -102z m172 43 l26 -60 -38 -25 -37 -25
-28 70 c-15 39 -26 71 -24 73 14 12 47 25 60 26 10 0 25 -22 41 -59z m-313
-95 c12 -19 18 -41 15 -50 -4 -11 14 -47 53 -104 76 -110 73 -106 64 -121 -6
-10 -20 4 -49 47 -23 32 -49 62 -60 64 -17 5 -112 129 -112 148 0 9 50 49 62
50 3 0 16 -15 27 -34z m446 -81 c28 -63 44 -109 39 -115 -5 -4 -155 -108 -334
-229 l-325 -221 -82 84 c-46 46 -83 87 -83 92 1 5 36 33 80 62 l80 54 51 -17
c164 -55 348 72 349 240 l0 50 83 56 c45 31 85 55 88 54 3 -2 27 -52 54 -110z
m-291 10 c20 -30 36 -63 36 -73 0 -29 -21 -83 -31 -80 -4 2 -33 39 -64 83
l-56 80 28 22 c15 13 33 23 39 23 6 0 28 -25 48 -55z m-334 -140 c60 -89 85
-135 75 -135 -8 0 -30 21 -48 46 -29 41 -35 45 -63 41 -30 -5 -35 -1 -80 65
l-49 70 30 24 c17 13 33 24 37 24 4 0 48 -61 98 -135z m113 41 c14 -21 14 -26
2 -36 -23 -19 -18 -46 15 -92 33 -45 37 -58 17 -58 -7 0 -37 36 -67 81 l-55
81 30 24 c37 30 39 30 58 0z m125 -76 c17 -27 32 -54 32 -58 0 -7 -22 -21 -62
-39 -3 -2 -23 20 -43 49 l-38 52 27 23 c15 13 32 23 39 23 7 0 27 -23 45 -50z
m499 -84 c24 -54 43 -100 41 -101 -2 -2 -136 -93 -298 -204 l-295 -201 -77 83
c-47 50 -73 86 -67 91 23 24 635 435 644 432 5 -1 29 -47 52 -100z m-885 37
c15 -15 28 -34 28 -43 0 -9 6 -22 13 -29 10 -10 7 -16 -12 -32 l-25 -20 -50
51 -51 51 28 25 c15 13 31 24 35 24 3 0 19 -12 34 -27z m137 -7 c9 -10 4 -19
-23 -39 -31 -24 -35 -25 -47 -11 -12 14 -9 20 16 40 35 28 39 29 54 10z m852
-260 c22 -48 39 -92 37 -97 -2 -6 -118 -88 -258 -184 l-255 -174 -80 79 c-43
44 -77 81 -75 83 3 2 111 75 240 162 129 87 255 174 280 192 25 18 51 32 58
30 7 -1 31 -42 53 -91z"/>
<path d="M5633 5453 c-57 -17 -125 -69 -148 -113 -17 -32 -195 -855 -195 -898
1 -72 76 -166 174 -218 48 -25 59 -27 85 -17 22 8 43 8 84 -2 30 -7 67 -10 81
-8 16 3 34 -1 44 -10 29 -25 81 -31 102 -12 25 23 60 11 60 -20 0 -79 152 -85
307 -13 74 34 181 148 230 243 81 159 113 295 113 480 0 183 -41 298 -144 401
-62 62 -151 114 -194 114 -13 0 -36 -12 -50 -28 -27 -28 -62 -32 -62 -7 0 24
-29 37 -89 39 -33 2 -66 7 -73 13 -7 6 -37 16 -65 22 -29 6 -62 20 -73 31 -25
25 -109 26 -187 3z m170 -34 c8 -13 -21 -163 -112 -584 -67 -312 -126 -576
-132 -586 -13 -26 -36 -24 -94 10 -65 37 -121 99 -136 151 -12 38 -6 71 76
453 48 227 96 430 105 453 32 76 126 125 229 121 37 -1 57 -7 64 -18z m94 -38
c-34 -62 -39 -87 -27 -141 6 -30 13 -62 16 -70 2 -9 -14 -35 -37 -60 -36 -39
-40 -47 -35 -79 19 -108 20 -104 -19 -151 -39 -47 -41 -59 -19 -165 4 -24 -2
-42 -35 -90 -47 -69 -50 -91 -19 -144 l22 -39 -29 -36 c-78 -96 -92 -134 -62
-165 10 -11 7 -12 -18 -6 -16 3 -32 8 -34 11 -4 4 236 1132 244 1144 6 9 57 0
52 -9z m85 -33 c14 -12 2 -72 -102 -550 -65 -296 -120 -544 -124 -553 -7 -20
-39 -19 -66 3 -31 25 -22 56 35 123 25 29 45 59 45 66 0 8 -9 31 -20 53 -11
22 -20 44 -20 51 0 6 18 39 41 73 43 64 43 66 23 174 -5 27 -1 40 30 79 39 50
46 90 24 150 -11 31 -10 35 24 71 48 50 51 64 32 138 -21 84 -6 134 40 134 12
0 29 -6 38 -12z m89 2 c5 0 9 -8 9 -17 0 -18 -238 -1134 -243 -1139 -1 -1 -15
0 -30 3 -19 4 -26 10 -23 22 8 26 246 1127 246 1135 0 5 7 5 16 2 9 -3 20 -6
25 -6z m245 -35 c76 -45 136 -110 173 -188 28 -57 29 -62 12 -69 -10 -3 -21
-13 -24 -20 -8 -23 21 -79 44 -85 21 -6 21 -10 16 -137 -6 -148 -27 -244 -80
-358 -29 -64 -37 -73 -62 -75 -15 0 -39 -13 -54 -27 -21 -21 -24 -29 -14 -44
6 -9 16 -16 22 -15 48 12 -69 -96 -144 -131 -68 -33 -184 -54 -222 -40 -17 5
-29 18 -31 31 -3 17 81 417 218 1047 36 164 45 171 146 111z m-163 -35 c-4
-29 -225 -1055 -229 -1062 -5 -8 -44 2 -44 13 0 10 219 1028 226 1052 7 22 50
19 47 -3z m371 -276 c3 -8 2 -12 -4 -9 -6 3 -10 10 -10 16 0 14 7 11 14 -7z
m-139 -664 c-3 -5 -11 -10 -16 -10 -6 0 -7 5 -4 10 3 6 11 10 16 10 6 0 7 -4
4 -10z"/>
<path d="M6410 4807 c0 -29 39 -67 68 -67 17 0 22 6 22 25 0 32 -33 65 -65 65
-20 0 -25 -5 -25 -23z m51 -24 c13 -16 12 -17 -3 -4 -10 7 -18 15 -18 17 0 8
8 3 21 -13z"/>
<path d="M6372 4584 c-27 -19 -28 -40 -2 -54 30 -16 90 14 90 46 0 20 -5 24
-33 24 -18 0 -43 -7 -55 -16z m48 -18 c0 -2 -7 -7 -16 -10 -8 -3 -12 -2 -9 4
6 10 25 14 25 6z"/>
<path d="M3773 4742 c-7 -4 -24 -33 -37 -65 -27 -59 -34 -65 -54 -45 -7 7 -15
8 -21 3 -4 -6 -84 -170 -176 -365 -92 -195 -170 -358 -172 -362 -2 -4 24 -28
59 -52 306 -219 489 -346 495 -346 4 0 137 129 295 287 274 274 287 288 271
306 -16 17 -15 20 30 62 26 23 47 51 47 62 0 18 -67 93 -84 93 -4 0 -38 -26
-74 -57 l-66 -58 43 60 c86 120 112 162 106 176 -8 19 -79 69 -99 69 -8 0 -21
-9 -29 -21 -13 -18 -16 -19 -24 -5 -13 23 -74 66 -95 66 -10 0 -32 -19 -49
-43 l-30 -42 -43 40 -44 40 39 57 c22 31 39 61 39 67 0 26 -88 85 -112 76 -7
-3 -35 -39 -63 -80 -55 -81 -74 -96 -49 -37 9 20 18 42 20 47 6 16 -8 31 -53
54 -46 23 -52 24 -70 13z m85 -58 c7 -5 -20 -74 -28 -74 -5 0 -19 -11 -32 -24
-22 -24 -24 -24 -44 -7 l-21 17 28 63 28 62 33 -17 c18 -9 35 -18 36 -20z
m204 -17 c0 -12 -175 -266 -184 -266 -17 -2 -6 33 23 75 29 43 33 84 7 84 -15
0 -3 24 48 96 l46 65 30 -23 c16 -13 30 -27 30 -31z m-301 -129 l77 -53 4 -60
c15 -177 185 -294 347 -241 l51 16 72 -52 c40 -28 77 -55 83 -60 11 -10 -155
-180 -170 -174 -11 4 -633 442 -648 455 -8 8 89 221 100 221 4 0 42 -24 84
-52z m125 -26 c-13 -13 -18 -12 -45 7 -34 24 -37 31 -20 48 9 9 20 5 46 -14
30 -23 32 -28 19 -41z m338 -13 c14 -11 26 -26 26 -32 -1 -19 -35 -54 -55 -58
-10 -2 -48 -45 -84 -95 -36 -50 -69 -92 -74 -93 -26 -7 -22 11 13 59 21 30 40
66 40 80 0 23 87 159 101 160 4 0 18 -9 33 -21z m-181 -12 c26 -21 27 -23 12
-44 -12 -17 -22 -21 -48 -16 -30 5 -35 1 -67 -46 -36 -52 -50 -62 -50 -36 0
18 102 165 115 165 6 0 23 -10 38 -23z m328 -28 c16 -11 29 -25 29 -30 0 -18
-133 -199 -147 -199 -18 0 -17 6 12 48 29 42 31 64 10 82 -13 11 -10 20 23 66
20 30 39 54 40 54 2 0 17 -9 33 -21z m-337 -82 l29 -24 -39 -56 c-21 -31 -42
-57 -45 -57 -3 0 -18 13 -33 29 l-29 30 38 50 c20 28 40 51 43 51 4 0 20 -11
36 -23z m210 -30 c19 -14 19 -16 -13 -66 -42 -66 -65 -81 -119 -81 l-43 0 62
90 c65 94 64 94 113 57z m-374 -223 c168 -118 312 -222 320 -230 13 -13 5 -24
-65 -93 l-80 -80 -292 207 c-161 114 -293 210 -293 214 0 12 93 198 99 198 3
0 143 -97 311 -216z m566 57 l-49 -50 -34 26 -34 26 53 54 52 53 30 -30 30
-30 -48 -49z m-681 -291 c143 -101 262 -185 264 -187 7 -5 -141 -153 -152
-153 -7 0 -461 314 -516 356 -2 2 18 48 44 103 l48 100 26 -18 c14 -10 143
-100 286 -201z"/>
<path d="M302 4490 c-48 -7 -64 -23 -59 -57 3 -14 0 -20 -6 -16 -12 7 -82 5
-109 -3 -23 -7 -28 -26 -19 -83 l8 -49 -33 5 c-42 7 -84 -4 -84 -21 0 -10 11
-12 45 -8 45 5 45 4 45 -26 0 -22 -6 -32 -19 -37 -27 -8 -32 -30 -22 -92 6
-42 5 -53 -5 -53 -15 0 -20 16 -33 110 l-9 65 -1 -96 c-1 -95 -1 -96 26 -108
48 -22 125 -25 187 -7 44 13 70 29 107 66 26 26 51 59 54 73 7 26 16 29 120
42 28 3 61 8 74 11 l24 5 -5 -121 c-3 -66 -8 -123 -11 -126 -3 -3 -124 -21
-269 -40 -313 -41 -308 -40 -308 -60 0 -12 7 -14 28 -10 15 3 133 19 262 36
129 17 248 33 264 36 l29 6 -5 -111 c-2 -61 -7 -114 -11 -117 -3 -4 -131 -24
-284 -45 -153 -21 -279 -38 -280 -38 -2 -1 -3 -8 -3 -16 0 -11 7 -14 23 -10
12 2 130 18 262 35 132 17 250 33 263 35 21 5 22 3 22 -72 0 -43 -3 -94 -6
-113 l-6 -36 -256 -33 c-300 -39 -302 -39 -302 -57 0 -8 1 -14 3 -14 24 0 580
80 584 84 6 5 32 603 33 739 0 70 -2 77 -20 77 -18 0 -20 7 -20 68 0 40 -5 73
-12 80 -7 7 -36 12 -65 12 -65 0 -73 -12 -73 -111 0 -40 -2 -70 -5 -67 -3 2
-12 60 -22 127 -14 111 -29 154 -51 150 -4 -1 -27 -5 -50 -9z m72 -150 c19
-138 19 -130 3 -130 -8 0 -17 20 -23 53 -8 46 -12 52 -36 55 -29 3 -34 17 -40
102 -3 33 -1 35 32 41 19 3 38 3 42 0 3 -3 14 -58 22 -121z m-150 15 c4 -21 2
-42 -6 -54 -10 -16 -10 -40 0 -118 15 -123 15 -133 -2 -133 -9 0 -16 20 -21
65 -4 39 -13 72 -23 82 -16 15 -45 177 -34 188 3 3 22 5 43 5 34 0 37 -2 43
-35z m326 -42 c0 -71 -5 -78 -52 -87 l-38 -7 0 69 c0 38 3 72 7 75 3 4 24 7
45 7 l38 0 0 -57z m-226 -50 c21 -109 20 -117 -20 -159 l-38 -39 -7 40 c-4 22
-10 73 -14 113 l-7 72 40 0 c36 0 41 -3 46 -27z m-160 -130 c3 -21 6 -53 6
-70 0 -32 -2 -33 -40 -33 -22 0 -40 1 -40 3 0 1 -4 29 -10 61 -5 32 -7 63 -4
67 3 5 22 9 43 9 37 0 39 -2 45 -37z"/>
<path d="M9863 4433 c-40 -8 -44 -24 -30 -122 14 -95 7 -121 -14 -50 -15 50
-27 55 -84 39 -68 -19 -72 -29 -48 -111 l20 -69 -23 0 c-13 0 -24 -4 -24 -9 0
-14 238 -772 244 -778 2 -3 23 -2 45 2 27 4 41 12 41 22 0 12 -7 14 -33 9
l-34 -6 -31 101 c-17 56 -29 105 -27 109 3 4 32 10 65 14 44 5 60 11 60 22 0
14 -43 14 -133 0 -11 -1 -78 205 -71 216 3 4 16 8 29 8 64 0 175 23 175 36 0
8 -4 14 -9 14 -15 0 -164 -20 -188 -25 -21 -5 -25 4 -58 111 -20 64 -35 118
-32 120 2 2 47 10 100 17 l96 14 38 -39 c20 -21 41 -38 45 -38 23 0 0 358 -24
388 -10 12 -49 14 -95 5z m77 -30 c0 -5 9 -75 20 -157 24 -177 24 -172 6 -157
-8 7 -17 34 -21 61 -7 51 -17 65 -50 72 -16 2 -21 14 -27 58 -4 30 -9 69 -12
87 -4 27 -1 32 17 36 38 7 67 7 67 0z m-150 -148 c5 -14 8 -46 6 -72 -4 -45
-6 -48 -32 -48 -24 0 -30 6 -45 50 -24 67 -23 72 9 83 42 16 52 14 62 -13z
m120 -85 c0 -25 -67 -41 -81 -19 -17 27 -5 35 54 38 21 1 27 -4 27 -19z"/>
<path d="M7788 4231 c-31 -10 -76 -30 -100 -44 -46 -27 -133 -111 -154 -149
-20 -35 -17 -79 7 -104 16 -17 19 -26 11 -41 -6 -10 -19 -18 -29 -18 -22 0
-54 -62 -48 -92 3 -14 -3 -31 -17 -46 -13 -14 -32 -48 -43 -76 -11 -28 -27
-53 -36 -56 -26 -9 -39 -51 -39 -132 0 -96 15 -145 59 -194 33 -36 72 -55 436
-203 220 -90 415 -167 432 -170 21 -5 54 -1 89 9 46 13 70 29 126 84 66 65 69
70 67 112 -1 27 7 63 20 92 11 27 21 62 21 78 0 16 6 32 14 35 8 3 22 24 31
46 14 36 14 42 1 57 -12 13 -12 20 -2 39 7 12 15 20 19 16 14 -14 59 8 77 39
16 25 20 50 20 119 0 154 -47 258 -170 371 -115 106 -270 186 -441 227 -110
26 -270 27 -351 1z m92 -30 c0 -39 77 -37 105 2 14 20 18 20 88 9 139 -21 300
-88 414 -171 37 -27 42 -35 37 -59 -4 -19 1 -35 16 -55 25 -31 45 -34 59 -9
10 16 12 15 31 -8 11 -14 35 -54 52 -90 25 -52 33 -81 36 -147 2 -45 1 -98 -2
-117 -14 -72 -1 -76 -554 150 -665 271 -612 247 -612 283 0 21 14 44 51 86 56
61 116 100 194 127 66 23 85 23 85 -1z m65 9 c-3 -5 -11 -10 -16 -10 -6 0 -7
5 -4 10 3 6 11 10 16 10 6 0 7 -4 4 -10z m623 -265 c-3 -3 -9 2 -12 12 -6 14
-5 15 5 6 7 -7 10 -15 7 -18z m-458 -250 c267 -109 489 -201 493 -205 10 -9
-2 -40 -16 -40 -6 0 -226 88 -489 195 -262 107 -488 199 -502 204 -32 13 -25
55 8 48 12 -2 239 -93 506 -202z m-35 -73 c339 -139 531 -223 532 -232 9 -52
-2 -48 -546 175 -291 120 -535 221 -542 225 -14 9 -2 50 14 50 7 -1 250 -98
542 -218z m138 -152 c368 -152 368 -151 329 -200 -27 -33 -61 -21 -112 40 -59
70 -71 75 -130 54 l-49 -18 -60 57 -60 57 -72 0 -73 0 -42 48 -42 47 -67 -2
-67 -1 -30 43 c-35 49 -65 61 -133 51 -48 -8 -111 12 -121 38 -3 8 2 28 10 45
l16 30 177 -73 c98 -40 334 -137 526 -216z m-689 150 c17 -6 54 -8 91 -4 l63
7 32 -44 c41 -58 52 -62 116 -54 l55 7 46 -51 46 -51 74 0 73 0 60 -55 c33
-30 66 -55 74 -55 7 0 31 6 52 14 50 17 58 13 95 -40 34 -50 80 -78 115 -71
27 5 31 -10 12 -35 -12 -14 -72 9 -523 193 -635 259 -578 232 -563 264 11 25
11 25 32 6 12 -11 34 -25 50 -31z m443 -256 c290 -118 533 -220 540 -226 23
-19 14 -55 -28 -102 -23 -25 -61 -58 -85 -72 -82 -48 -95 -45 -521 129 -211
86 -396 163 -413 172 -17 9 -42 34 -57 56 -23 35 -28 54 -31 128 -5 99 5 131
43 131 13 0 261 -97 552 -216z"/>
<path d="M8123 4140 c-44 -27 -47 -70 -5 -70 49 0 95 69 56 84 -20 8 -14 9
-51 -14z m22 -30 c-3 -5 -11 -10 -16 -10 -6 0 -7 5 -4 10 3 6 11 10 16 10 6 0
7 -4 4 -10z"/>
<path d="M8314 4054 c-8 -30 9 -72 32 -81 37 -14 52 56 21 95 -17 21 -46 14
-53 -14z m46 -35 c0 -6 -4 -7 -10 -4 -5 3 -10 11 -10 16 0 6 5 7 10 4 6 -3 10
-11 10 -16z"/>
<path d="M1733 3665 c-93 -40 -197 -224 -154 -270 5 -6 5 -35 1 -65 -4 -30 -5
-70 -2 -87 2 -18 0 -39 -6 -46 -6 -7 -14 -32 -18 -55 -5 -33 -3 -43 10 -48 30
-11 19 -49 -18 -62 -62 -23 -69 -84 -25 -220 57 -172 228 -299 484 -358 110
-26 342 -26 435 0 142 39 255 126 318 243 43 82 44 134 2 165 -36 26 -37 32
-6 59 28 24 44 92 27 112 -7 9 -6 22 5 43 9 16 18 52 21 81 4 33 13 59 24 69
25 23 25 84 -1 166 -24 79 -75 141 -133 162 -48 18 -809 126 -883 126 -27 -1
-63 -7 -81 -15z m523 -70 c241 -33 414 -62 438 -72 22 -10 52 -35 68 -57 53
-73 77 -205 40 -225 -19 -10 -1137 140 -1179 159 -14 6 -23 18 -23 32 1 56 72
161 135 200 18 10 49 18 76 18 25 0 225 -25 445 -55z m-75 -310 c670 -93 599
-80 599 -115 0 -28 -1 -29 -27 -14 -37 19 -94 18 -159 -3 l-53 -16 -36 31
c-46 41 -81 50 -118 29 -41 -24 -68 -21 -118 13 -50 33 -89 37 -144 15 -42
-18 -62 -14 -125 25 -68 42 -82 44 -124 15 -47 -32 -64 -31 -106 3 -64 53
-120 68 -148 40 -9 -9 -12 -5 -12 20 0 24 4 32 18 32 10 0 259 -34 553 -75z
m-479 -6 c11 -6 41 -26 65 -45 49 -37 65 -38 115 -3 35 26 53 24 107 -10 61
-38 91 -44 141 -26 60 21 79 19 130 -16 48 -33 83 -35 147 -8 30 12 33 11 76
-24 50 -41 65 -44 127 -22 59 21 113 19 134 -4 15 -16 15 -23 4 -48 l-13 -30
-550 78 c-302 43 -556 81 -562 84 -31 11 2 85 38 85 11 0 30 -5 41 -11z m1054
-272 c2 -2 1 -13 -3 -25 -3 -14 -13 -22 -27 -22 -32 0 -1135 156 -1140 161 -2
2 -2 16 1 30 l5 25 580 -83 c320 -45 583 -84 584 -86z m-588 -2 c294 -41 537
-77 540 -79 2 -3 1 -14 -3 -26 -5 -17 -12 -20 -38 -15 -45 7 -1040 145 -1049
145 -5 0 -8 11 -8 25 0 14 5 25 11 25 6 0 252 -34 547 -75z m-153 -60 c220
-31 468 -65 550 -76 83 -11 160 -24 173 -29 71 -30 -42 -226 -173 -301 -56
-32 -75 -36 -75 -14 0 22 -56 19 -77 -3 -10 -10 -23 -27 -29 -38 -10 -17 -24
-19 -160 -19 -130 1 -161 4 -244 27 -139 39 -162 50 -166 83 -6 56 -75 90 -92
45 -7 -18 -13 -15 -65 37 -66 66 -111 149 -128 240 -10 55 -9 66 5 88 14 21
22 25 49 20 18 -3 212 -30 432 -60z m-235 -356 c0 -6 -4 -7 -10 -4 -5 3 -10
11 -10 16 0 6 5 7 10 4 6 -3 10 -11 10 -16z"/>
<path d="M1955 2610 c-7 -23 18 -75 41 -84 26 -10 46 13 39 43 -14 55 -67 82
-80 41z m49 -36 c3 -8 2 -12 -4 -9 -6 3 -10 10 -10 16 0 14 7 11 14 -7z"/>
<path d="M2199 2571 c-37 -38 -35 -66 5 -66 37 0 76 47 60 72 -17 28 -32 26
-65 -6z m26 -30 c-3 -6 -11 -11 -17 -11 -6 0 -6 6 2 15 14 17 26 13 15 -4z"/>
<path d="M5240 3616 c-208 -58 -433 -255 -545 -478 -53 -106 -69 -177 -62
-283 5 -95 35 -177 84 -235 36 -41 76 -53 101 -28 17 17 45 -10 38 -36 -6 -24
48 -86 75 -86 10 0 21 -10 24 -22 4 -13 26 -42 48 -65 23 -24 46 -57 51 -75
14 -41 78 -82 166 -104 53 -13 74 -14 120 -5 55 12 55 12 374 334 190 192 325
336 334 357 22 51 18 135 -8 205 -25 64 -76 125 -107 125 -10 0 -34 17 -53 36
-19 20 -47 42 -62 50 -16 8 -28 20 -28 27 0 23 -67 80 -86 73 -23 -9 -58 22
-43 40 6 7 9 27 7 45 -7 72 -152 139 -298 138 -47 0 -105 -6 -130 -13z m266
-36 c81 -28 134 -65 134 -93 0 -28 -832 -877 -860 -877 -68 0 -137 212 -116
354 7 42 9 46 31 40 17 -4 26 0 34 14 14 27 14 67 0 90 -10 15 -5 29 26 78 77
120 185 232 305 312 44 29 56 33 71 24 50 -31 126 -2 101 39 -10 16 -8 20 21
28 60 17 189 13 253 -9z m-309 -36 c-3 -3 -12 -4 -19 -1 -8 3 -5 6 6 6 11 1
17 -2 13 -5z m453 -149 c6 -8 10 -19 8 -24 -1 -6 -176 -184 -387 -396 -305
-305 -387 -383 -397 -374 -8 6 -14 16 -14 22 0 11 758 782 771 785 4 1 12 -5
19 -13z m98 -56 c-2 -3 -187 -194 -412 -423 l-410 -417 -20 21 -21 20 171 173
c93 94 280 283 414 419 232 235 245 247 262 231 10 -9 17 -20 16 -24z m44 -56
c10 -9 18 -29 18 -44 0 -33 -24 -52 -90 -69 -73 -19 -90 -34 -90 -81 0 -57
-13 -75 -67 -93 -70 -23 -101 -53 -121 -116 -16 -52 -20 -55 -70 -75 -64 -24
-102 -58 -102 -92 0 -42 -18 -62 -61 -69 -57 -9 -86 -36 -106 -100 -17 -55
-59 -104 -88 -104 -7 0 -23 12 -35 27 l-21 27 403 403 c222 222 405 403 407
403 3 0 13 -7 23 -17z m-100 -278 c-109 -110 -295 -299 -414 -420 -216 -218
-217 -219 -237 -201 l-21 19 38 23 c37 22 48 40 82 132 14 36 28 46 79 56 46
8 69 31 77 75 9 48 27 67 84 86 57 19 75 37 89 91 13 49 41 77 101 100 65 25
82 44 88 103 l5 51 66 20 c73 21 111 53 111 90 l0 23 25 -23 26 -24 -199 -201z
m271 167 c9 -10 28 -44 43 -75 30 -67 36 -156 13 -198 -8 -15 -153 -169 -324
-342 -278 -282 -315 -316 -355 -327 -54 -15 -121 -2 -199 36 -55 28 -70 53
-48 84 29 42 828 840 841 840 7 0 20 -8 29 -18z m-1256 -124 c-3 -7 -5 -2 -5
12 0 14 2 19 5 13 2 -7 2 -19 0 -25z"/>
<path d="M4993 3403 c-7 -2 -13 -13 -13 -23 0 -32 58 -57 92 -39 51 27 -22 85
-79 62z m57 -33 c0 -5 -7 -7 -15 -4 -8 4 -15 8 -15 10 0 2 7 4 15 4 8 0 15 -4
15 -10z"/>
<path d="M4847 3263 c-14 -13 -6 -72 12 -94 16 -20 21 -21 35 -10 9 7 16 25
16 40 0 46 -41 87 -63 64z m30 -65 c-3 -7 -5 -2 -5 12 0 14 2 19 5 13 2 -7 2
-19 0 -25z"/>
<path d="M9177 2295 c-131 -33 -230 -103 -299 -209 -57 -89 -62 -164 -10 -180
25 -8 18 -56 -8 -56 -22 0 -33 -28 -34 -90 -1 -25 -6 -54 -13 -65 -6 -11 -14
-38 -18 -60 -4 -22 -19 -57 -33 -78 -23 -34 -24 -43 -19 -105 9 -89 55 -184
106 -217 40 -27 49 -29 561 -135 243 -50 355 -69 380 -65 56 10 117 52 160
109 l40 53 0 166 c0 92 -3 167 -7 167 -5 0 -260 54 -568 119 -559 118 -560
118 -557 142 2 13 5 25 7 27 1 2 253 -49 559 -113 306 -63 559 -115 561 -115
3 0 5 6 5 14 0 9 -25 19 -72 30 -130 28 -991 206 -1000 206 -4 0 -8 11 -8 25
0 14 5 25 11 25 12 0 1022 -208 1052 -216 11 -4 17 0 17 10 0 8 -8 17 -17 20
-10 3 -258 55 -552 116 -294 61 -541 116 -548 122 -21 17 -15 49 18 107 52 90
154 177 230 196 21 5 27 2 32 -14 3 -12 13 -21 22 -21 28 0 73 29 80 51 7 21
10 22 144 16 143 -6 216 -22 348 -76 60 -24 68 -31 74 -60 4 -17 15 -41 24
-51 21 -24 65 -27 65 -5 0 22 10 19 47 -17 30 -29 33 -30 33 -11 0 54 -190
168 -365 219 -75 22 -115 27 -240 30 -109 3 -166 0 -208 -11z m33 -40 c-7 -9
-15 -13 -19 -10 -3 3 1 10 9 15 21 14 24 12 10 -5z m664 -141 c5 -14 4 -15 -9
-4 -17 14 -19 20 -6 20 5 0 12 -7 15 -16z m-496 -489 c274 -57 521 -109 550
-115 45 -10 52 -15 52 -36 0 -29 -36 -68 -57 -60 -8 3 -18 6 -21 6 -4 0 -27
18 -52 40 -59 53 -84 59 -131 32 -48 -28 -61 -27 -96 2 -15 13 -43 31 -62 41
-34 17 -43 17 -137 -1 -26 -5 -42 1 -84 30 -57 39 -94 45 -139 22 -24 -13 -30
-13 -52 2 -14 9 -35 28 -48 41 -24 24 -32 25 -154 5 -48 -8 -97 11 -97 38 0
21 17 58 26 58 3 0 229 -47 502 -105z m-518 -10 c31 -18 67 -18 141 -3 l57 12
40 -36 c51 -46 74 -53 111 -34 45 24 71 19 121 -20 42 -34 48 -36 95 -29 101
14 118 11 169 -28 55 -42 87 -46 131 -17 17 11 35 20 42 20 6 0 34 -20 63 -44
55 -47 100 -62 132 -45 19 10 20 9 14 -17 -4 -16 -9 -30 -10 -32 -2 -1 -259
51 -572 116 l-569 118 -3 27 c-4 30 2 32 38 12z m540 -190 c303 -63 558 -119
566 -126 22 -18 17 -51 -14 -100 -39 -60 -103 -115 -150 -129 -35 -11 -79 -4
-458 74 -230 48 -432 92 -447 98 -64 25 -127 143 -127 235 0 51 9 63 45 63 18
0 281 -52 585 -115z"/>
<path d="M9394 2215 c-33 -33 -28 -60 10 -60 20 0 35 9 49 27 39 53 -11 81
-59 33z m36 -20 c-7 -9 -15 -13 -17 -11 -7 7 7 26 19 26 6 0 6 -6 -2 -15z"/>
<path d="M9605 2190 c-10 -17 5 -66 25 -85 41 -38 70 22 34 73 -16 23 -48 29
-59 12z m45 -48 c0 -15 -2 -15 -10 -2 -13 20 -13 33 0 25 6 -3 10 -14 10 -23z"/>
<path d="M7254 2116 c-46 -54 -47 -54 -63 -34 -17 20 -24 12 -279 -293 -145
-172 -260 -319 -258 -326 11 -27 431 -513 441 -511 7 2 168 95 358 207 338
200 346 205 329 224 -9 11 -12 22 -7 24 6 2 34 17 63 33 60 35 64 50 30 110
-29 50 -51 51 -130 5 -33 -20 -62 -35 -63 -33 -2 2 41 40 96 86 54 46 99 90
99 98 0 27 -62 94 -86 94 -13 0 -26 -4 -29 -10 -9 -15 -25 -12 -25 5 0 20 -59
85 -77 85 -8 0 -35 -16 -59 -36 -37 -31 -44 -33 -44 -18 0 11 -13 34 -29 53
l-29 35 54 44 c35 29 54 52 54 66 0 20 -63 96 -79 96 -10 0 -49 -29 -110 -82
-56 -48 -71 -49 -32 -1 17 21 31 44 31 51 0 18 -71 82 -92 82 -9 0 -38 -24
-64 -54z m103 -9 l22 -20 -26 -33 c-14 -19 -32 -34 -41 -34 -8 0 -23 -7 -32
-15 -16 -14 -19 -13 -34 10 -16 25 -16 26 25 75 43 51 48 52 86 17z m212 -85
c0 -4 -55 -53 -122 -109 -88 -73 -123 -97 -126 -86 -2 10 14 31 38 51 41 34
50 59 30 79 -9 9 -1 20 27 45 21 18 52 45 69 60 l30 28 28 -30 c15 -17 27 -34
26 -38z m-303 -78 c36 -42 40 -52 32 -74 -5 -14 -10 -51 -10 -83 0 -150 140
-281 282 -264 53 6 37 19 158 -125 l23 -27 -103 -60 c-56 -34 -105 -61 -108
-61 -8 0 -513 595 -518 610 -2 5 31 51 74 101 l78 92 25 -30 c14 -17 45 -52
67 -79z m83 16 c12 -17 19 -35 16 -40 -11 -19 -34 -10 -56 21 -18 26 -19 33
-8 40 21 13 23 12 48 -21z m150 -101 l24 -31 -21 -21 c-17 -17 -24 -19 -34 -9
-21 21 -53 13 -95 -23 -46 -39 -53 -42 -53 -21 0 13 137 136 150 135 3 0 16
-14 29 -30z m182 -40 l21 -30 -27 -29 c-17 -18 -33 -26 -46 -23 -14 4 -45 -17
-110 -72 -62 -53 -94 -74 -101 -67 -7 7 2 21 28 44 63 54 74 67 75 86 0 15
113 120 131 121 4 1 16 -13 29 -30z m-422 -291 c246 -292 250 -298 228 -312
-12 -8 -56 -34 -98 -59 l-76 -44 -232 273 c-207 245 -231 276 -219 292 46 64
133 161 139 155 3 -5 120 -142 258 -305z m198 230 c13 -12 23 -27 23 -34 0 -7
-23 -31 -50 -54 -49 -41 -52 -42 -65 -24 -32 42 -30 57 16 96 24 21 46 38 48
38 3 0 15 -10 28 -22z m358 -18 l29 -31 -26 -22 c-15 -12 -58 -48 -96 -79 -64
-54 -92 -69 -92 -51 0 4 18 24 40 44 37 34 39 39 29 63 -11 24 -9 29 32 65 24
22 47 40 50 41 3 0 18 -14 34 -30z m-164 -62 l23 -32 -55 -49 c-52 -47 -56
-48 -99 -43 -24 4 -48 10 -52 14 -7 7 138 140 154 141 4 1 17 -13 29 -31z
m-600 -303 c123 -146 225 -270 227 -274 4 -12 -175 -114 -187 -106 -21 12
-394 459 -395 472 -1 10 118 167 130 173 1 0 102 -119 225 -265z m794 155 c9
-17 13 -35 10 -40 -4 -6 -29 -22 -57 -36 l-51 -26 -31 32 c-17 18 -26 34 -21
36 6 2 33 17 60 34 63 37 71 37 90 0z"/>
<path d="M0 2054 c0 -10 13 -38 29 -63 37 -58 60 -127 68 -202 7 -74 -12 -104
-62 -95 l-32 6 -1 -52 c-1 -34 4 -55 13 -62 15 -12 10 -56 -6 -56 -5 0 -9 -46
-8 -102 0 -81 2 -98 11 -78 5 14 11 50 12 81 0 31 6 62 12 70 7 8 15 33 19 56
5 33 3 43 -10 51 -26 14 -10 46 27 57 47 14 60 46 53 127 -6 78 -36 165 -77
225 -33 50 -48 61 -48 37z"/>
<path d="M3558 2008 c-13 -12 -36 -39 -51 -58 -26 -33 -28 -34 -42 -16 -7 10
-18 15 -24 12 -20 -13 -514 -609 -514 -621 0 -7 98 -128 217 -269 209 -246
219 -256 240 -243 11 8 165 98 341 202 176 103 326 192 333 198 10 8 9 13 -3
27 -15 17 -12 20 44 51 33 18 63 39 66 47 10 26 -45 112 -72 112 -8 0 -42 -16
-75 -35 -33 -20 -62 -34 -64 -32 -2 2 39 39 91 82 63 53 95 86 95 100 0 21
-64 95 -82 95 -6 0 -20 -7 -30 -17 -15 -14 -18 -14 -18 -1 0 17 -72 98 -87 98
-5 0 -28 -16 -50 -35 -39 -33 -60 -45 -49 -27 3 5 -8 28 -25 51 l-31 41 43 40
c24 21 47 39 52 40 4 0 7 13 7 28 0 31 -54 92 -81 92 -8 0 -48 -27 -87 -60
-77 -65 -88 -68 -46 -13 31 41 27 68 -15 100 -45 35 -58 37 -83 11z m68 -42
l28 -23 -25 -31 c-13 -17 -30 -31 -38 -31 -8 -1 -23 -9 -34 -18 -18 -17 -20
-17 -38 6 l-19 23 41 49 c22 27 45 49 49 49 5 0 21 -11 36 -24z m193 -52 c12
-15 21 -30 21 -34 0 -8 -235 -210 -244 -210 -19 0 0 34 35 62 37 30 40 36 35
69 -5 34 -3 38 57 87 34 28 65 52 69 52 4 0 16 -12 27 -26z m-306 -83 c64 -76
66 -81 55 -111 -17 -50 -4 -152 26 -204 52 -88 133 -135 236 -136 l65 0 64
-76 c49 -59 61 -79 50 -85 -8 -5 -55 -33 -106 -63 l-92 -55 -247 292 c-136
161 -254 300 -262 309 -13 15 -6 27 64 112 44 53 79 96 80 96 0 0 31 -36 67
-79z m106 -12 c20 -27 21 -33 9 -46 -13 -13 -18 -10 -42 17 -21 25 -24 35 -15
46 16 20 22 18 48 -17z m148 -101 c29 -27 29 -42 -1 -61 -21 -14 -26 -14 -36
-2 -18 22 -35 19 -72 -13 -65 -54 -68 -56 -68 -39 0 15 132 137 147 137 4 0
17 -10 30 -22z m188 -97 c-13 -13 -34 -25 -47 -27 -13 -1 -26 -3 -29 -3 -3 -1
-43 -32 -88 -71 -46 -38 -87 -70 -91 -70 -26 0 -13 22 35 64 30 26 55 55 55
64 0 10 30 43 67 74 l68 57 27 -32 27 -32 -24 -24z m-430 -228 c138 -163 251
-300 253 -304 2 -3 -41 -32 -94 -63 -79 -47 -99 -55 -109 -44 -14 14 -114 132
-323 380 l-133 158 72 85 c39 47 74 85 78 84 3 0 119 -134 256 -296z m189 141
c-27 -24 -54 -43 -59 -44 -6 0 -19 14 -30 32 l-18 32 48 44 49 44 29 -33 30
-32 -49 -43z m396 35 c0 -4 -43 -44 -96 -90 -61 -52 -99 -78 -105 -72 -6 6 5
23 31 47 42 39 48 54 28 75 -11 10 -3 21 37 56 l50 44 28 -26 c15 -15 27 -30
27 -34z m-183 -38 l23 -29 -54 -46 c-37 -31 -63 -46 -83 -46 -37 0 -73 10 -73
20 0 11 142 130 155 129 6 0 20 -13 32 -28z m-701 -186 c66 -77 168 -197 227
-266 l107 -127 -97 -56 c-53 -31 -97 -55 -98 -54 -1 2 -93 110 -204 241 -131
155 -199 243 -194 251 19 30 128 156 134 154 3 -2 60 -66 125 -143z m889 45
c8 -16 15 -33 15 -39 0 -5 -25 -23 -56 -40 l-56 -30 -25 29 c-13 16 -25 32
-26 35 -2 6 112 73 125 74 4 1 14 -12 23 -29z"/>
<path d="M1087 1954 c-4 -4 -7 -52 -7 -106 0 -102 -13 -130 -24 -53 -9 56 -26
67 -89 53 -61 -13 -69 -28 -52 -106 l13 -62 -24 0 c-18 0 -24 -6 -24 -21 0
-27 130 -781 136 -791 3 -5 158 -8 344 -8 l338 0 6 28 c6 26 136 784 136 789
0 2 -11 3 -25 3 -22 0 -24 3 -17 33 4 17 7 52 7 77 l0 45 -49 12 c-30 7 -55 9
-65 3 -9 -5 -23 -39 -33 -82 l-16 -73 -1 116 c-1 144 -5 151 -86 147 -56 -3
-60 -5 -63 -29 -3 -24 -5 -25 -63 -21 -77 6 -89 -4 -89 -76 0 -44 -3 -53 -12
-44 -7 7 -33 12 -60 12 l-47 0 -3 78 -3 77 -60 3 c-34 2 -64 0 -68 -4z m103
-191 c-1 -150 -2 -166 -15 -149 -9 12 -15 42 -15 73 0 48 -2 53 -25 59 -24 6
-25 9 -25 95 l0 89 40 0 40 0 0 -167z m420 42 c0 -104 -2 -125 -15 -125 -11 0
-15 12 -15 44 0 46 -18 76 -46 76 -11 0 -14 15 -14 65 l0 65 45 0 45 0 0 -125z
m-150 36 c0 -22 -6 -44 -15 -51 -12 -10 -15 -38 -15 -130 0 -96 -3 -119 -15
-124 -12 -4 -15 7 -15 68 0 53 -4 77 -15 86 -11 9 -15 35 -15 101 l0 89 45 0
45 0 0 -39z m-439 -38 c6 -16 7 -49 4 -76 -7 -47 -8 -48 -38 -45 -30 3 -32 6
-42 66 l-12 62 26 6 c14 3 31 7 36 9 6 2 11 4 13 4 1 1 7 -11 13 -26z m748 8
c10 -6 11 -20 6 -52 -12 -79 -12 -79 -61 -79 -38 0 -45 3 -40 18 2 9 7 33 11
52 12 65 15 70 43 70 15 0 33 -4 41 -9z m-459 -76 c0 -27 -4 -35 -18 -35 -31
0 -42 -22 -42 -83 0 -42 -3 -58 -12 -55 -13 5 -24 167 -14 195 3 8 21 13 46
13 39 0 40 -1 40 -35z m238 -39 c3 -64 1 -71 -25 -98 -60 -64 -63 -61 -63 62
l0 111 43 -3 42 -3 3 -69z m-418 4 c0 -17 -7 -20 -40 -20 -33 0 -40 3 -40 20
0 17 7 20 40 20 33 0 40 -3 40 -20z m240 -100 l0 -70 -29 0 c-56 0 -61 7 -61
76 l0 64 45 0 45 0 0 -70z m-250 42 c0 -19 75 -94 113 -114 51 -26 151 -35
203 -18 56 17 108 55 140 101 l27 39 98 0 c86 0 99 -2 99 -17 0 -15 -24 -157
-36 -210 l-4 -23 -405 0 c-223 0 -405 3 -405 8 0 4 -9 59 -20 122 -11 63 -20
116 -20 118 0 1 47 2 105 2 58 0 105 -4 105 -8z m618 -379 c-10 -60 -22 -111
-27 -116 -4 -4 -167 -6 -361 -5 l-354 3 -18 100 c-9 55 -17 106 -17 113 -1 9
85 12 398 12 l398 0 -19 -107z m-33 -195 c-4 -24 -12 -72 -18 -108 l-12 -65
-318 -3 c-174 -1 -317 0 -317 2 0 5 -29 166 -35 194 l-5 22 355 0 356 0 -6
-42z"/>
<path d="M0 1265 c0 -42 3 -56 10 -45 12 19 12 71 0 90 -7 11 -10 -3 -10 -45z"/>
<path d="M5040 1093 c-215 -38 -445 -157 -549 -286 -51 -64 -89 -153 -101
-238 -17 -123 11 -199 75 -199 27 0 45 -38 25 -50 -19 -12 -5 -78 21 -106 14
-15 20 -31 16 -44 -3 -12 3 -45 13 -75 10 -30 16 -63 13 -74 -6 -24 21 -30 30
-6 4 9 223 86 573 201 l567 187 20 -24 c39 -48 5 -221 -54 -275 -11 -10 -75
-37 -142 -60 -113 -40 -119 -43 -77 -43 61 -1 194 45 235 80 57 50 79 110 79
217 1 90 0 95 -26 115 -15 13 -31 41 -38 67 -7 24 -20 55 -30 67 -10 13 -18
38 -18 57 0 44 -23 91 -45 90 -27 -2 -32 35 -8 60 35 37 28 84 -22 153 -102
138 -228 194 -427 192 -58 -1 -116 -4 -130 -6z m138 -43 c15 -25 58 -43 83
-35 10 3 19 17 21 30 l3 24 67 -23 c91 -30 160 -79 214 -150 34 -45 44 -67 42
-89 l-3 -31 -565 -188 c-311 -103 -574 -187 -585 -186 -52 7 -53 171 -1 284
36 79 75 129 89 115 30 -30 78 7 81 60 1 27 10 36 65 70 127 77 313 136 431
138 35 1 48 -4 58 -19z m57 0 c3 -6 -1 -7 -9 -4 -18 7 -21 14 -7 14 6 0 13 -4
16 -10z m-653 -222 c-7 -7 -12 -8 -12 -2 0 14 12 26 19 19 2 -3 -1 -11 -7 -17z
m988 -107 c0 -5 3 -16 6 -24 4 -12 -101 -50 -517 -187 -526 -173 -538 -176
-539 -135 0 8 1004 349 1043 354 4 1 7 -3 7 -8z m65 -82 c4 -12 3 -25 -2 -29
-7 -7 -485 -165 -950 -315 l-162 -52 -6 25 c-3 13 -5 25 -3 27 8 7 1085 364
1100 364 9 1 20 -8 23 -20z m13 -113 c2 -24 -2 -42 -10 -48 -7 -5 -54 -6 -105
-2 l-92 6 -28 -46 -28 -47 -67 5 c-80 7 -108 -2 -165 -55 -31 -29 -49 -38 -63
-34 -34 11 -117 7 -137 -6 -12 -7 -28 -26 -38 -42 -15 -25 -22 -28 -49 -23
-108 20 -99 22 -159 -32 -84 -76 -152 -80 -145 -8 3 30 5 31 168 84 91 29 327
107 525 173 198 65 367 117 375 116 10 -1 16 -16 18 -41z m46 -95 c-9 -9
-1106 -373 -1110 -368 -1 1 -6 15 -10 31 -5 20 -4 27 4 22 27 -16 86 8 140 56
48 44 58 49 86 43 96 -20 93 -20 135 25 l39 43 72 -6 72 -6 50 47 51 47 88 -3
89 -3 27 46 28 46 90 -6 c82 -6 93 -5 115 13 25 21 25 21 34 1 6 -12 6 -23 0
-28z"/>
<path d="M4966 994 c-7 -18 44 -74 67 -74 25 0 40 26 27 49 -20 39 -82 56 -94
25z m59 -25 c11 -17 -1 -21 -15 -4 -8 9 -8 15 -2 15 6 0 14 -5 17 -11z"/>
<path d="M4783 938 c-28 -35 -20 -98 12 -98 22 0 47 45 43 77 -3 31 -37 44
-55 21z m18 -51 c-10 -9 -11 -8 -5 6 3 10 9 15 12 12 3 -3 0 -11 -7 -18z"/>
<path d="M8023 619 c-84 -14 -155 -46 -218 -97 -98 -78 -126 -138 -89 -190 17
-25 10 -66 -10 -59 -7 3 -17 2 -23 -1 -18 -12 -44 -73 -38 -91 3 -11 -4 -26
-18 -39 -13 -13 -34 -44 -47 -71 -12 -27 -32 -54 -44 -59 -17 -9 -11 -11 33
-11 49 -1 53 1 36 13 -17 12 -17 15 -3 35 14 19 16 20 28 6 25 -30 65 -42 160
-48 l95 -6 -24 20 c-18 14 -39 19 -88 19 -64 0 -117 19 -127 46 -6 17 17 58
36 62 9 2 84 -31 168 -73 111 -56 160 -75 183 -73 26 3 1 18 -161 95 -105 51
-192 98 -192 105 1 48 14 44 271 -81 182 -88 260 -121 282 -119 23 2 -21 27
-227 127 -141 68 -256 129 -256 135 1 42 19 36 325 -114 205 -100 318 -150
339 -149 23 0 -57 44 -324 177 -414 207 -400 193 -305 286 69 68 161 115 239
123 32 3 56 2 55 -3 -4 -21 2 -33 20 -39 23 -7 70 10 86 31 10 14 18 14 76 0
140 -32 259 -88 381 -178 59 -43 67 -53 62 -74 -14 -55 43 -118 72 -79 11 15
15 12 38 -27 38 -64 54 -109 62 -166 4 -34 11 -52 20 -52 30 0 6 122 -42 211
-132 244 -561 455 -831 408z m117 -39 c-20 -13 -33 -13 -25 0 3 6 14 10 23 10
15 0 15 -2 2 -10z m610 -301 c0 -6 -4 -7 -10 -4 -5 3 -10 11 -10 16 0 6 5 7
10 4 6 -3 10 -11 10 -16z"/>
<path d="M8295 486 c-30 -30 -24 -56 14 -56 38 0 73 27 69 53 -5 33 -51 35
-83 3z m40 -16 c-3 -5 -12 -10 -18 -10 -7 0 -6 4 3 10 19 12 23 12 15 0z"/>
<path d="M8507 424 c-12 -12 -8 -79 7 -99 31 -43 72 25 45 74 -15 26 -39 38
-52 25z m33 -59 c0 -8 -2 -15 -4 -15 -2 0 -6 7 -10 15 -3 8 -1 15 4 15 6 0 10
-7 10 -15z"/>
<path d="M1783 279 c-58 -18 -103 -54 -103 -83 0 -6 -23 -26 -50 -45 -28 -18
-50 -38 -50 -43 0 -15 -24 -35 -41 -35 -21 0 -79 -44 -79 -60 0 -20 21 -16 47
9 l23 21 23 -21 c24 -23 47 -29 47 -13 0 6 -4 13 -10 16 -18 11 -11 34 15 51
35 23 69 7 85 -40 14 -44 44 -51 34 -9 -11 44 -23 63 -53 81 l-28 17 22 17
c22 16 23 16 80 -63 37 -50 66 -79 78 -79 22 0 22 -1 -55 104 -33 43 -58 86
-56 95 5 25 88 61 159 67 106 10 139 -10 244 -150 58 -77 94 -116 107 -116 14
0 -1 26 -70 118 -49 64 -98 125 -109 134 -56 50 -155 61 -260 27z"/>
</g>
</svg>
